<?xml version="1.0" encoding="UTF-8"?>
<svg id="Layer_2" xmlns="http://www.w3.org/2000/svg" viewBox="0 0 702.66 134.92">
  <defs>
    <style>
      .cls-1 {
        fill: #f9f7f0;
      }
    </style>
  </defs>
  <g id="Layer_1-2" data-name="Layer_1">
    <g>
      <path class="cls-1" d="M244.22,42.09h-29.94l-12.05,68.64h-22.03l12.05-68.64h-30.06l3.41-18.99h82.03l-3.41,18.99Z"/>
      <path class="cls-1" d="M301.54,64.61c0,2.76-.47,5.44-1.4,8.03-.93,2.6-1.85,4.5-2.74,5.72l-1.34,1.7h-18.38c2.03-1.87,3.04-4.18,3.04-6.94,0-1.46-.47-2.66-1.4-3.59-.93-.93-2.21-1.4-3.83-1.4-2.76,0-5.15,1.38-7.18,4.14l-6.82,38.46h-20.69l10.34-58.54h19.23l-1.46,8.15c4.62-6.57,10.22-9.86,16.79-9.86,5.27,0,9.23,1.26,11.87,3.77,2.64,2.52,3.96,5.96,3.96,10.34Z"/>
      <path class="cls-1" d="M363.73,91.99c0,2.11,1.07,3.16,3.22,3.16s3.96-.41,5.42-1.22l-.61,13.75c-3.89,3.16-8.28,4.75-13.14,4.75-9.17,0-14.16-3.53-14.97-10.59-4.87,7.06-11.42,10.59-19.65,10.59s-13.57-1.87-16-5.6c-1.62-2.35-2.43-5.03-2.43-8.03s.24-5.76.73-8.28l6.81-38.34h20.69l-5.72,32.37c-.24,1.46-.37,2.92-.37,4.38,0,3.89,2.19,5.84,6.57,5.84,3.65,0,6.57-1.26,8.76-3.77l6.94-38.82h20.69l-6.81,38.34c-.08.49-.12.97-.12,1.46Z"/>
      <path class="cls-1" d="M413.5,89.43l23.12-66.33h23.73l-33.22,87.62h-38.94l-.97-87.62h23.85l-.37,66.33h2.8Z"/>
      <path class="cls-1" d="M510.62,91.99c0,2.11,1.07,3.16,3.22,3.16s3.96-.41,5.42-1.22l-.61,13.75c-3.89,3.16-8.28,4.75-13.14,4.75-8.93,0-13.87-3.24-14.85-9.74-4.06,6.49-10.02,9.74-17.89,9.74-13.31,0-19.96-5.72-19.96-17.16,0-1.95.2-4.1.61-6.45l2.56-14.24c1.3-7.3,4.28-13.12,8.95-17.46,4.66-4.34,10.75-6.51,18.25-6.51s12.6,1.75,15.27,5.23l.61-3.65h18.5l-6.82,38.34c-.08.49-.12.97-.12,1.46ZM474.59,86.15c-.16.73-.24,1.75-.24,3.04s.61,2.58,1.83,3.83c1.22,1.26,3.26,1.89,6.15,1.89s5.37-1.14,7.49-3.41l3.65-20.45c-.89-2.03-3-3.04-6.33-3.04-6.25,0-9.9,3-10.95,9.01l-1.58,9.13Z"/>
      <path class="cls-1" d="M585.46,91.99c0,2.11,1.07,3.16,3.22,3.16s3.96-.41,5.42-1.22l-.61,13.75c-3.89,3.16-8.28,4.75-13.14,4.75-9.17,0-14.16-3.53-14.97-10.59-4.87,7.06-11.42,10.59-19.65,10.59s-13.57-1.87-16-5.6c-1.62-2.35-2.43-5.03-2.43-8.03s.24-5.76.73-8.28l6.82-38.34h20.69l-5.72,32.37c-.24,1.46-.37,2.92-.37,4.38,0,3.89,2.19,5.84,6.57,5.84,3.65,0,6.57-1.26,8.76-3.77l6.94-38.82h20.69l-6.82,38.34c-.08.49-.12.97-.12,1.46Z"/>
      <path class="cls-1" d="M624.28,91.99c0,2.11,1.07,3.16,3.23,3.16s3.96-.41,5.42-1.22l-.61,13.75c-3.89,3.16-8.28,4.75-13.14,4.75-7.38,0-12.17-1.7-14.36-5.11-1.38-2.19-2.07-4.58-2.07-7.18s.16-4.87.49-6.82l12.48-70.84h20.69l-11.99,68.04c-.08.49-.12.97-.12,1.46Z"/>
      <path class="cls-1" d="M666.51,112.43c-9.41,0-16.19-2.11-20.32-6.33-3.08-3.08-4.62-7.22-4.62-12.41,0-1.7.16-3.53.49-5.48l8.28-47.1,22.27-9.25-3.53,20.32h33.59l-3.04,17.16h-33.59l-2.43,13.75c-.33,1.54-.49,2.92-.49,4.14,0,5.11,2.43,7.67,7.3,7.67,2.6,0,4.77-1.1,6.51-3.29,1.74-2.19,2.94-5.11,3.59-8.76h20.2c-3.41,19.72-14.81,29.57-34.2,29.57Z"/>
    </g>
    <g>
      <path class="cls-1" d="M80.24,23.08c-.22,0-.39.17-.39.39v74.57c0,.34.41.52.66.28.66-.61,1.3-1.24,1.93-1.87.78-.8,1.55-1.58,2.29-2.39,4.13-4.43,7.75-9.16,10.79-14.08l.38-.63c.18-.29.36-.6.54-.89,2.37-4.02,4.39-8.18,6.02-12.44,1.72-4.51,3.03-9.19,3.9-13.9.81-4.51,1.23-9.12,1.23-13.71v-14.94c0-.22-.17-.39-.39-.39h-26.95Z"/>
      <path class="cls-1" d="M22.51,23.08c-.22,0-.39.17-.39.39v14.94c0,4.59.42,9.2,1.23,13.71.87,4.71,2.18,9.38,3.9,13.9,1.63,4.26,3.64,8.42,6.02,12.44.18.29.36.6.54.89l.38.63c3.04,4.92,6.66,9.65,10.79,14.08.74.81,1.51,1.59,2.29,2.39.63.63,1.27,1.26,1.93,1.87.25.24.66.06.66-.28V23.47c0-.22-.17-.39-.39-.39h-26.95Z"/>
      <path class="cls-1" d="M128.87,23.14h-13.04c-.46,0-.84.36-.84.82v14.52c0,2.51-.11,5.03-.35,7.51-.04.63-.11,1.26-.18,1.89-.21,1.9-.49,3.78-.82,5.66-.95,5.19-2.37,10.28-4.27,15.21-1.76,4.62-3.94,9.12-6.49,13.45-.34.6-.7,1.17-1.06,1.76-3.3,5.35-7.21,10.45-11.65,15.21-.81.87-1.65,1.75-2.5,2.6-4.54,4.54-9.59,8.77-15.12,12.6-.01.03-.04.04-.08.06-2.3,1.61-4.69,3.14-7.16,4.61-.27.15-.6.15-.87,0-2.47-1.47-4.86-3-7.16-4.61-.03-.01-.06-.03-.08-.06-5.53-3.84-10.59-8.06-15.12-12.61-.87-.85-1.69-1.72-2.51-2.58-4.44-4.76-8.34-9.86-11.65-15.21-.35-.57-.71-1.16-1.05-1.75-2.56-4.33-4.73-8.84-6.51-13.46-1.89-4.93-3.31-10.01-4.26-15.21-.34-1.87-.61-3.76-.82-5.66-.07-.63-.14-1.26-.18-1.89-.24-2.49-.35-5-.35-7.51v-14.52c0-.46-.38-.82-.84-.82H.84c-.46,0-.84.36-.84.82v13.48c0,.29,0,.6.01.89.04,5.14.47,10.22,1.3,15.21.87,5.18,2.11,10.25,3.77,15.21,1.73,5.22,3.88,10.29,6.47,15.21.95,1.83,1.95,3.62,3.02,5.39,2.01,3.37,4.23,6.65,6.63,9.82,1.77,2.35,3.66,4.64,5.64,6.86,2.56,2.89,5.28,5.67,8.17,8.34,2.25,2.08,4.59,4.09,7.04,6.03,4.11,3.28,8.49,6.35,13.14,9.19.67.42,1.37.82,2.07,1.24,1.4.84,2.83,1.63,4.29,2.42l2.92,1.58c.24.14.54.14.8,0l2.9-1.58c1.45-.78,2.88-1.59,4.29-2.43.7-.4,1.38-.81,2.07-1.23,4.64-2.83,9.02-5.91,13.14-9.19,2.44-1.94,4.79-3.95,7.04-6.03,2.89-2.67,5.61-5.46,8.17-8.34,1.98-2.23,3.85-4.51,5.63-6.86,2.4-3.17,4.62-6.44,6.63-9.8,1.08-1.77,2.08-3.57,3.03-5.4,2.57-4.92,4.73-9.98,6.47-15.21,1.65-4.96,2.92-10.03,3.77-15.21.82-4.99,1.26-10.07,1.3-15.21.01-.29.01-.6.01-.89v-13.48c0-.46-.38-.82-.84-.82Z"/>
      <path class="cls-1" d="M1.16,15.77h55.41c.34.06.6.33.67.66.01.06.01.11.01.17v83.61c0,.28.13.55.36.7,2.19,1.52,4.45,2.97,6.8,4.36.27.15.6.15.87,0,2.35-1.38,4.61-2.83,6.8-4.36.24-.15.36-.42.36-.7V16.59c0-.06,0-.11.01-.17.07-.33.34-.6.67-.66h55.42c.56,0,.96-.54.8-1.09l-4.55-14.1c-.11-.33-.43-.57-.8-.57H5.7c-.36,0-.68.24-.8.57L.36,14.68c-.18.54.22,1.09.8,1.09Z"/>
      <rect class="cls-1" x="20.39" y="112.7" width="9.54" height="15.85" rx="2.46" ry="2.46"/>
      <rect class="cls-1" x="99.77" y="112.7" width="9.54" height="15.85" rx="2.46" ry="2.46"/>
    </g>
  </g>
</svg>